<svg width="45" height="44" viewBox="0 0 45 44" fill="none" xmlns="http://www.w3.org/2000/svg">
<g filter="url(#filter0_d_1048_54773)">
<circle cx="22.5" cy="20" r="18" fill="#FFE9EC"/>
</g>
<path d="M17.5013 25.8333C17.5013 26.75 18.2513 27.5 19.168 27.5H25.8346C26.7513 27.5 27.5013 26.75 27.5013 25.8333V17.5C27.5013 16.5833 26.7513 15.8333 25.8346 15.8333H19.168C18.2513 15.8333 17.5013 16.5833 17.5013 17.5V25.8333ZM20.0013 17.5H25.0013C25.4596 17.5 25.8346 17.875 25.8346 18.3333V25C25.8346 25.4583 25.4596 25.8333 25.0013 25.8333H20.0013C19.543 25.8333 19.168 25.4583 19.168 25V18.3333C19.168 17.875 19.543 17.5 20.0013 17.5ZM25.418 13.3333L24.8263 12.7417C24.6763 12.5917 24.4596 12.5 24.243 12.5H20.7596C20.543 12.5 20.3263 12.5917 20.1763 12.7417L19.5846 13.3333H17.5013C17.043 13.3333 16.668 13.7083 16.668 14.1667C16.668 14.625 17.043 15 17.5013 15H27.5013C27.9596 15 28.3346 14.625 28.3346 14.1667C28.3346 13.7083 27.9596 13.3333 27.5013 13.3333H25.418Z" fill="#ED1117"/>
<defs>
<filter id="filter0_d_1048_54773" x="0.5" y="0" width="44" height="44" filterUnits="userSpaceOnUse" color-interpolation-filters="sRGB">
<feFlood flood-opacity="0" result="BackgroundImageFix"/>
<feColorMatrix in="SourceAlpha" type="matrix" values="0 0 0 0 0 0 0 0 0 0 0 0 0 0 0 0 0 0 127 0" result="hardAlpha"/>
<feOffset dy="2"/>
<feGaussianBlur stdDeviation="2"/>
<feComposite in2="hardAlpha" operator="out"/>
<feColorMatrix type="matrix" values="0 0 0 0 0.811765 0 0 0 0 0.756863 0 0 0 0 0.768627 0 0 0 0.5 0"/>
<feBlend mode="normal" in2="BackgroundImageFix" result="effect1_dropShadow_1048_54773"/>
<feBlend mode="normal" in="SourceGraphic" in2="effect1_dropShadow_1048_54773" result="shape"/>
</filter>
</defs>
</svg>
