<svg width="47" height="46" viewBox="0 0 47 46" fill="none" xmlns="http://www.w3.org/2000/svg">
<g filter="url(#filter0_d_1048_54767)">
<circle cx="23.5" cy="21" r="18" fill="#EDF6FC"/>
</g>
<g clip-path="url(#clip0_1048_54767)">
<path d="M20.6234 26.1321C19.6883 26.1321 18.9219 25.3841 18.9219 24.5113L18.9219 21.1842L20.6234 26.1321ZM20.6234 26.1321H26.2578C26.6907 26.1321 27.1058 25.9601 27.4119 25.6541C27.718 25.348 27.8899 24.9329 27.8899 24.5V21.1841M20.6234 26.1321L27.8899 21.1841M27.8899 21.1841C27.8899 21.1841 27.8899 21.1841 27.8899 21.1841V21.1841ZM19.0519 20.5283C18.9659 20.7363 18.9217 20.9591 18.9219 21.1841L27.5285 20.6239C27.4549 20.4463 27.3471 20.285 27.2111 20.1491C27.0751 20.0132 26.9137 19.9055 26.7361 19.832C26.5584 19.7586 26.368 19.7209 26.1758 19.721V19.471H26.1756H25.6471V18.3341C25.6471 17.6777 25.4447 17.1209 25.0516 16.7279C24.6585 16.3348 24.1017 16.1324 23.4454 16.1324C22.7891 16.1324 22.2324 16.3349 21.8394 16.728C21.4463 17.1211 21.244 17.6779 21.244 18.3341V19.4702H20.635C20.6349 19.4702 20.6349 19.4702 20.6349 19.4702C20.4099 19.4702 20.187 19.5145 19.9791 19.6006C19.7712 19.6868 19.5823 19.813 19.4232 19.9722C19.2641 20.1314 19.1379 20.3204 19.0519 20.5283ZM20.51 20.8831C20.5495 20.8667 20.5919 20.8583 20.6346 20.8583H26.0954C26.1382 20.8583 26.1805 20.8667 26.2201 20.8831C26.2596 20.8995 26.2955 20.9235 26.3258 20.9537C26.356 20.984 26.38 21.0199 26.3964 21.0594C26.4127 21.0989 26.4212 21.1413 26.4212 21.1841V24.5C26.4212 24.5864 26.3869 24.6693 26.3258 24.7304C26.2647 24.7915 26.1818 24.8258 26.0954 24.8258H20.6346C20.5482 24.8258 20.4654 24.7915 20.4043 24.7304C20.3432 24.6693 20.3089 24.5864 20.3089 24.5V21.1841C20.3089 21.1413 20.3173 21.0989 20.3337 21.0594C20.35 21.0199 20.374 20.984 20.4043 20.9537C20.4345 20.9235 20.4704 20.8995 20.51 20.8831ZM24.1797 18.3341V19.4703L22.6313 19.4709V18.3341C22.6313 18.0057 22.7083 17.8126 22.8132 17.7013C22.9155 17.5928 23.0845 17.5197 23.3653 17.5197C23.6939 17.5197 23.8829 17.5967 23.9928 17.7066C24.1027 17.8165 24.1797 18.0056 24.1797 18.3341Z" fill="#0D99FF" stroke="#0D99FF" stroke-width="0.5"/>
<path d="M26.6905 16.6553L30.0144 16.0087C30.199 16.0087 30.384 15.824 30.384 15.5469L26.6905 16.6553ZM26.6905 16.6553H26.5962C26.4115 16.6553 26.134 16.4703 26.134 16.2856C26.134 16.1932 26.134 16.0085 26.2265 15.916C26.319 15.8235 26.4112 15.7313 26.5037 15.7313L26.6905 16.6553ZM28.8151 12.408L29.1058 13.7887L28.8151 12.408ZM28.8151 12.408C28.815 12.4067 28.815 12.4053 28.8151 12.404V12.408ZM23.4549 30.491L23.4549 30.4904L28.5665 12.4341L28.5678 12.4469L28.5705 12.4595L28.8054 13.5752C27.2245 12.492 25.4173 11.8787 23.4549 11.8787C18.3265 11.8787 14.1484 16.0567 14.1484 21.1848C14.1484 26.313 18.3265 30.491 23.4549 30.491ZM28.5797 12.1803C28.5652 12.2679 28.5651 12.3523 28.5651 12.3985L32.6013 21.1843L32.8513 21.1841C32.8513 21.1841 32.8513 21.1841 32.8513 21.184C32.8511 20.8204 32.827 20.4543 32.7913 20.1477C32.76 19.879 32.7175 19.6354 32.6669 19.4799V19.4796L32.6547 19.442C32.5929 19.2515 32.5092 19.0729 32.3821 18.9397C32.2464 18.7976 32.0715 18.7183 31.8631 18.7183H31.7706H31.7564L31.7423 18.7199C31.549 18.742 31.4069 18.8109 31.3058 18.8951C31.2077 18.9769 31.1605 19.0632 31.1412 19.1007C31.1132 19.1538 31.0951 19.2117 31.0879 19.2713L31.086 19.2873L31.0861 19.3034C31.0869 19.3924 31.097 19.481 31.1163 19.5678C31.123 19.6005 31.1301 19.6341 31.1372 19.6675C31.154 19.7467 31.1707 19.8254 31.1812 19.8908L31.1812 19.8908C31.2411 20.2649 31.2445 20.6495 31.2445 21.121V21.1211C31.2456 25.6239 27.4659 29.2333 22.9747 28.9597L22.9595 29.2092L22.9747 28.9597C18.6337 28.6953 15.2457 24.8646 15.7073 20.3638C16.0738 16.7921 18.8431 13.9219 22.4013 13.4604C24.5771 13.1804 26.7165 13.7739 28.3579 15.1193L26.474 15.4824C26.3604 15.491 26.271 15.547 26.2151 15.5889C26.1545 15.6344 26.0974 15.6915 26.055 15.734L26.0497 15.7392C25.9481 15.8408 25.9135 15.973 25.899 16.0597C25.884 16.1496 25.884 16.2361 25.884 16.2819V16.2856C25.884 16.4972 26.0321 16.6545 26.1459 16.7397C26.2667 16.8303 26.4337 16.9053 26.5962 16.9053H26.6905H26.7146L26.7382 16.9007L30.0419 16.2581C30.3851 16.2415 30.634 15.915 30.634 15.5469V15.4613C30.6343 15.4506 30.6339 15.4398 30.6329 15.4291L30.6318 15.4169L30.6294 15.4048L29.9865 12.0999C29.9739 11.9027 29.8342 11.7558 29.7256 11.6745C29.6047 11.5838 29.4377 11.509 29.2753 11.509H29.1842C29.0489 11.509 28.9431 11.5775 28.8698 11.6507C28.8035 11.7168 28.7477 11.8016 28.6992 11.8943C28.6213 11.9899 28.5925 12.103 28.5797 12.1803ZM29.7375 12.1287L30.384 15.4525L29.1842 11.759H29.2753C29.46 11.759 29.7375 11.9437 29.7375 12.1287ZM29.1579 14.0361L29.126 13.8845C29.0926 13.8886 29.0603 13.9 29.0316 13.918C29.0019 13.9366 28.9771 13.9616 28.9587 13.9909C28.9998 14.0211 29.0406 14.0517 29.0813 14.0825C29.0969 14.0944 29.1125 14.1063 29.1281 14.1183C29.1283 14.1184 29.1284 14.1185 29.1285 14.1186C29.1329 14.1219 29.1372 14.1253 29.1416 14.1286C29.1448 14.1311 29.1487 14.1326 29.1528 14.1328C29.1569 14.133 29.1609 14.132 29.1644 14.1298C29.1678 14.1277 29.1705 14.1245 29.1721 14.1207C29.1737 14.1169 29.1741 14.1128 29.1732 14.1088L29.1698 14.0927L29.1697 14.0921L29.1579 14.0361Z" fill="#0D99FF" stroke="#0D99FF" stroke-width="0.5"/>
<path d="M23.4519 30.375C18.3857 30.375 14.2617 26.2523 14.2617 21.1848C14.2617 16.1173 18.3844 11.9946 23.4519 11.9946C24.4947 11.9937 25.5298 12.1731 26.5114 12.5249C27.3917 12.8439 28.2221 13.2867 28.9775 13.8399L28.6827 12.4353C28.6805 12.4249 28.6794 12.4143 28.6794 12.4037C28.6794 12.3013 28.6794 12.0922 28.7944 11.959C28.8435 11.8617 28.9719 11.625 29.1812 11.625H29.2724C29.5037 11.625 29.8559 11.8427 29.8683 12.1139L30.5116 15.4279C30.5135 15.4376 30.5145 15.4474 30.5145 15.4573V15.5479C30.5145 15.8709 30.2961 16.135 30.0251 16.1438L26.7117 16.7872C26.702 16.7891 26.6921 16.7901 26.6822 16.7901H26.5916C26.3562 16.7901 25.9954 16.5644 25.9954 16.2864C25.9954 16.1792 25.9954 15.9535 26.1273 15.8219C26.2345 15.7147 26.3436 15.6056 26.4844 15.5983L28.6148 15.1901C26.9363 13.7228 24.6788 13.0526 22.3834 13.348C20.6284 13.5776 19.0027 14.3942 17.7708 15.6651C16.5402 16.9397 15.7719 18.5897 15.5886 20.352C15.3653 22.5286 16.0175 24.6392 17.4229 26.2955C18.1016 27.0973 18.9334 27.7558 19.8696 28.2324C21.3155 28.9708 22.9545 29.2431 24.5614 29.012C26.1684 28.781 27.6643 28.0578 28.8435 26.942C29.6386 26.1955 30.272 25.2937 30.7045 24.2925C31.137 23.2913 31.3593 22.2119 31.3578 21.1213C31.3578 20.6259 31.353 20.2464 31.2932 19.8727C31.2822 19.8041 31.2632 19.7148 31.2466 19.6363C31.2396 19.6036 31.2329 19.5719 31.227 19.543C31.212 19.4776 31.2036 19.4109 31.2018 19.3438L31.1999 19.3103C31.1999 19.2945 31.1962 19.2471 31.242 19.1567C31.3337 18.9771 31.5157 18.8635 31.7543 18.8364H31.8618C32.3343 18.8364 32.4914 19.3208 32.5432 19.4797L32.545 19.4854C32.6498 19.7711 32.7343 20.527 32.7351 21.1859C32.7375 23.6029 31.7824 25.8913 30.0457 27.6299C29.194 28.4846 28.185 29.1666 27.0744 29.6381C25.9291 30.1261 24.6968 30.3768 23.4519 30.375ZM23.4519 12.2627C18.5321 12.2627 14.5295 16.2653 14.5295 21.1848C14.5295 26.1044 18.5321 30.1069 23.4519 30.1069C24.66 30.108 25.8558 29.8641 26.9671 29.3902C28.0466 28.9325 29.0274 28.2703 29.8554 27.4401C31.5414 25.7514 32.4689 23.5311 32.4665 21.1859C32.4665 20.4916 32.3751 19.792 32.2909 19.5719L32.2856 19.5551C32.155 19.1573 31.9977 19.1037 31.8612 19.1037H31.7768C31.6302 19.1219 31.5305 19.1806 31.4806 19.2784C31.4758 19.2878 31.4716 19.2975 31.468 19.3074V19.3283C31.4689 19.3825 31.4757 19.4364 31.4881 19.4891C31.494 19.5175 31.5004 19.5484 31.5074 19.5803C31.5248 19.662 31.5444 19.7548 31.5567 19.8303C31.6197 20.2236 31.6245 20.6133 31.6248 21.1213C31.626 22.8011 31.1143 24.4413 30.1582 25.8225C29.2021 27.2037 27.8472 28.2602 26.2745 28.8506C25.2195 29.2417 24.0949 29.41 22.9716 29.3447C21.8484 29.2795 20.7508 28.9822 19.7482 28.4715C18.7804 27.9788 17.9205 27.2981 17.2189 26.4692C15.765 24.7566 15.0924 22.5744 15.3224 20.3246C15.5119 18.5026 16.3062 16.7964 17.5786 15.4785C18.8508 14.1611 20.5335 13.316 22.3499 13.0821C24.8021 12.7666 27.2137 13.5188 28.9665 15.1461C28.9874 15.1655 29.0025 15.1903 29.0101 15.2177C29.0178 15.2451 29.0177 15.2741 29.0099 15.3015C29.002 15.3289 28.9868 15.3535 28.9658 15.3728C28.9448 15.392 28.9189 15.405 28.8909 15.4104L26.5144 15.8661H26.5015C26.4645 15.8661 26.3699 15.9607 26.3192 16.0117C26.2686 16.0626 26.2656 16.2261 26.2656 16.2864C26.2656 16.3789 26.4648 16.522 26.5937 16.522H26.6741L30.0009 15.875H30.0138C30.1277 15.875 30.2494 15.7431 30.2494 15.5471V15.4667L29.6018 12.1415V12.1287C29.6018 12.0362 29.4027 11.8931 29.2737 11.8931H29.1812C29.1812 11.8931 29.1217 11.9016 29.025 12.0938L29.0204 12.1029L29.0067 12.122L28.9982 12.1314C28.9488 12.182 28.9446 12.3249 28.9446 12.3916L29.3 14.0804C29.3065 14.1111 29.3034 14.1432 29.2911 14.1721C29.2788 14.2011 29.2579 14.2256 29.2313 14.2424C29.2046 14.2591 29.1735 14.2673 29.1421 14.2658C29.1107 14.2643 29.0804 14.2532 29.0555 14.234C28.2286 13.5973 27.3416 13.1081 26.4187 12.7766C25.4667 12.4357 24.463 12.2618 23.4519 12.2627Z" fill="#0D99FF"/>
</g>
<defs>
<filter id="filter0_d_1048_54767" x="0.5" y="0" width="46" height="46" filterUnits="userSpaceOnUse" color-interpolation-filters="sRGB">
<feFlood flood-opacity="0" result="BackgroundImageFix"/>
<feColorMatrix in="SourceAlpha" type="matrix" values="0 0 0 0 0 0 0 0 0 0 0 0 0 0 0 0 0 0 127 0" result="hardAlpha"/>
<feOffset dy="2"/>
<feGaussianBlur stdDeviation="2.5"/>
<feComposite in2="hardAlpha" operator="out"/>
<feColorMatrix type="matrix" values="0 0 0 0 0.731597 0 0 0 0 0.782009 0 0 0 0 0.816667 0 0 0 0.5 0"/>
<feBlend mode="normal" in2="BackgroundImageFix" result="effect1_dropShadow_1048_54767"/>
<feBlend mode="normal" in="SourceGraphic" in2="effect1_dropShadow_1048_54767" result="shape"/>
</filter>
<clipPath id="clip0_1048_54767">
<rect width="20" height="20" fill="white" transform="translate(13.5 11)"/>
</clipPath>
</defs>
</svg>
